<svg xmlns="http://www.w3.org/2000/svg" version="1.1" xmlns:xlink="http://www.w3.org/1999/xlink" xmlns:svgjs="http://svgjs.com/svgjs" width="1440" height="560" preserveAspectRatio="none" viewBox="0 0 1440 560"><g mask="url(&quot;#SvgjsMask1000&quot;)" fill="none"><rect width="1440" height="560" x="0" y="0" fill="rgba(228, 240, 255, 1)"></rect><path d="M 0,177 C 57.6,149.4 172.8,42 288,39 C 403.2,36 460.8,151.2 576,162 C 691.2,172.8 748.8,95.8 864,93 C 979.2,90.2 1036.8,146.4 1152,148 C 1267.2,149.6 1382.4,110.4 1440,101L1440 560L0 560z" fill="rgba(9, 72, 138, 1)"></path><path d="M 0,480 C 19.2,464.6 57.6,401.6 96,403 C 134.4,404.4 153.6,488 192,487 C 230.4,486 249.6,401.4 288,398 C 326.4,394.6 345.6,484.4 384,470 C 422.4,455.6 441.6,331 480,326 C 518.4,321 537.6,452 576,445 C 614.4,438 633.6,280.8 672,291 C 710.4,301.2 729.6,479.2 768,496 C 806.4,512.8 825.6,388.8 864,375 C 902.4,361.2 921.6,436.4 960,427 C 998.4,417.6 1017.6,303.2 1056,328 C 1094.4,352.8 1113.6,550.4 1152,551 C 1190.4,551.6 1209.6,333.8 1248,331 C 1286.4,328.2 1305.6,542.4 1344,537 C 1382.4,531.6 1420.8,350.6 1440,304L1440 560L0 560z" fill="rgba(31, 130, 247, 1)"></path></g><defs><mask id="SvgjsMask1000"><rect width="1440" height="560" fill="#ffffff"></rect></mask></defs></svg>